<svg id="logo" xmlns="http://www.w3.org/2000/svg" viewBox="0 0 290.54 230.79"><defs><style>.cls-1,.cls-3{fill:none;}.cls-1,.cls-2,.cls-3{stroke:#a0326e;stroke-width:10px;}.cls-1{stroke-linecap:round;}.cls-2{fill:#a0326e;}</style></defs><path class="cls-1" d="M19.2,225.34a69,69,0,0,1,132.32-39.29" transform="translate(-11.43 -17.96)"/><line class="cls-2" x1="235.57" y1="118.96" x2="74" y2="118.96"/><path class="cls-2" d="M130.43,99.92s-30-5,0-51C130.43,48.92,162.61,92.92,130.43,99.92Z" transform="translate(-11.43 -17.96)"/><path class="cls-3" d="M107.43,136.92c22,0,23-37,23-37" transform="translate(-11.43 -17.96)"/><path class="cls-1" d="M186.36,106.76s2.19,30.4-31.4,30.16" transform="translate(-11.43 -17.96)"/><path class="cls-1" d="M233.11,79.81s0,50.88-39.26,57.11" transform="translate(-11.43 -17.96)"/><path class="cls-2" d="M154.29,185s23.31,19.53-25.89,43.94C128.4,228.93,123,174.68,154.29,185Z" transform="translate(-11.43 -17.96)"/><path class="cls-2" d="M152.86,185.05s24-18.64,37.47,34.61C190.33,219.66,136.17,213.44,152.86,185.05Z" transform="translate(-11.43 -17.96)"/><path class="cls-2" d="M153.65,189.64s30.41.54,7.49,50.45C161.14,240.09,122.84,201.29,153.65,189.64Z" transform="translate(-11.43 -17.96)"/><path class="cls-2" d="M242.18,135.24s4.88-30,51-.2C293.18,135,249.3,167.4,242.18,135.24Z" transform="translate(-11.43 -17.96)"/><path class="cls-2" d="M232.43,82.19S213,58.76,265.84,43.65C265.84,43.65,261.33,98,232.43,82.19Z" transform="translate(-11.43 -17.96)"/><path class="cls-2" d="M233.85,82.38s-27,14-30.59-40.81C203.26,41.57,255.4,57.47,233.85,82.38Z" transform="translate(-11.43 -17.96)"/><path class="cls-2" d="M233.91,77.73s-29.81-6,1.75-51C235.66,26.76,266.31,71.84,233.91,77.73Z" transform="translate(-11.43 -17.96)"/></svg>