<?xml version="1.0" encoding="utf-8"?>
<!-- Generator: Adobe Illustrator 24.1.2, SVG Export Plug-In . SVG Version: 6.00 Build 0)  -->
<svg version="1.1" id="Layer_1" xmlns="http://www.w3.org/2000/svg" xmlns:xlink="http://www.w3.org/1999/xlink" x="0px" y="0px"
	 viewBox="0 0 697 657" style="enable-background:new 0 0 697 657;" xml:space="preserve">
<style type="text/css">
	.st0{fill-rule:evenodd;clip-rule:evenodd;fill:#44525E;}
	.st1{fill-rule:evenodd;clip-rule:evenodd;fill:#F2A479;}
	.st2{fill:none;stroke:#0B8947;stroke-width:4;}
	.st3{fill:none;stroke:#D3629D;stroke-width:4;}
</style>
<g>
	<path class="st0" d="M328.08,137c60.37-62.71,169.37,48.75,259.68,176.07s151.88,187.82,73,269.76
		c-78.87,81.94-247.23,114.52-332.68,0C242.63,468.31,267.71,199.71,328.08,137L328.08,137z"/>
	<path class="st1" d="M14.88,304.53C-36.99,254.7,55.2,164.72,160.52,90.18C265.83,15.63,315.88-35.2,383.65,29.91
		c67.77,65.11,94.72,204.08,0,274.62C288.93,375.07,66.76,354.36,14.88,304.53L14.88,304.53z"/>
	<g>
		<path class="st2" d="M344,45.09L364.09,25l20.09,20.09L404.26,25l20.09,20.09L444.44,25"/>
		<path class="st2" d="M344,63.09L364.09,43l20.09,20.09L404.26,43l20.09,20.09L444.44,43"/>
		<path class="st2" d="M344,81.09L364.09,61l20.09,20.09L404.26,61l20.09,20.09L444.44,61"/>
		<path class="st2" d="M344,99.09L364.09,79l20.09,20.09L404.26,79l20.09,20.09L444.44,79"/>
	</g>
	<path class="st3" d="M0,0"/>
</g>
</svg>
