<?xml version="1.0" encoding="utf-8"?>
<!-- Generator: Adobe Illustrator 24.1.2, SVG Export Plug-In . SVG Version: 6.00 Build 0)  -->
<svg version="1.1" xmlns="http://www.w3.org/2000/svg" xmlns:xlink="http://www.w3.org/1999/xlink" x="0px" y="0px"
	 viewBox="0 0 294.51 220.47" style="enable-background:new 0 0 294.51 220.47;" xml:space="preserve">
<style type="text/css">
	.st0{fill:#F9BFB2;stroke:#F9BFB2;stroke-miterlimit:10;}
	.st1{fill:none;stroke:#F9BFB2;stroke-width:3;stroke-miterlimit:10;}
	.st2{fill:none;stroke:#CEC383;stroke-width:0.5;stroke-miterlimit:10;}
	.st3{fill:#CEC383;stroke:#CEC383;stroke-width:0.6418;stroke-miterlimit:10;}
	.st4{fill:#FBCBBC;stroke:#FBCBBC;stroke-miterlimit:10;}
	.st5{fill:#4E97AE;stroke:#4E97AE;stroke-width:0.5;stroke-miterlimit:10;}
	.st6{fill:none;stroke:#F9BFB2;stroke-miterlimit:10;}
	.st7{fill:none;stroke:#F6D0CC;stroke-miterlimit:10;}
</style>
<g id="Layer_2">
	<path class="st0" d="M137.65,43.56c11.12-11.63,25.74-20.66,41.77-22.01c-3.18,7.48-6.35,14.97-9.53,22.45
		c-2.04,4.81-4.09,9.64-6.91,14.03c-5.92,9.25-22.75,26.68-35.09,21.15C110.47,71.39,130.36,51.19,137.65,43.56z"/>
	<path class="st0" d="M182.91,71.11c8.33-1.59,16.13-5.13,23.84-8.65c9.55-4.37,19.15-8.81,27.64-14.99
		c8.49-6.18,15.88-14.29,19.52-24.14c-25.06,0.79-49.23,15.53-61.41,37.45c-1.52,2.74-2.93,5.66-5.3,7.7
		c-2.17,1.87-4.96,2.84-7.7,3.68c-8.01,2.48-16.24,4.27-24.56,5.35c4-0.11,13.75,9.47,17.71,8.98c2.79-0.35,5.41-1.48,8.04-2.51
		c17.12-6.67,35.95-8.88,54.15-6.35c-5.23,7.24-13.88,11.07-22.27,14.13c-7.59,2.76-15.49,5.19-23.56,5.01
		c-8.08-0.18-16.45-3.33-21.2-9.86c-0.72,7.74-3.77,15.83,1.72,21.33c5.49,5.5,12.48,9.22,19.43,12.72
		c1.56-8.72-0.93-18.08-6.62-24.88c-5.69-6.79-14.47-10.88-23.34-10.87c-0.18,1.27,0.12,2.6,0.81,3.67"/>
	<path class="st0" d="M256.06,90.78c-5.75,9.15-15.77,15.21-26.38,17.26c-7.72,1.49-15.86,1.04-23.45-0.96
		c-10.83-2.85,0.46-7.09,5.58-9.15c7.2-2.9,14.65-5.27,22.31-6.58C248.95,88.79,255.79,91.2,256.06,90.78z"/>
	<path class="st0" d="M225.34,137.49c0.52-6.07,0.96-12.52-1.87-17.91c-1.63-3.11-4.24-5.59-6.95-7.83
		c-5.79-4.78-20.83-14.1-15.26,0.54C205.21,122.65,215.24,133.02,225.34,137.49z"/>
	<path class="st0" d="M281.59,136.08c-2-7.6-7.74-13.84-14.57-17.73c-6.82-3.89-12.93-6.13-22.47-6.53c-8.57-0.36-14.83,2-14.83,2
		c-0.85,0.9,8.78,10.09,13.08,12.21C255.63,132.35,268.01,136.88,281.59,136.08z"/>
	<path class="st1" d="M162.21,78.5c1.03,4.39,4.88,7.46,8.6,10c11.17,7.63,23.4,13.72,36.22,18.03
		c10.36,3.48,21.18,5.85,30.86,10.93"/>
	<path class="st2" d="M102.35,93.99c36.45,9.69,69.64,31.24,93.33,60.58c-38.06,2.68-76.96-8.69-107.59-31.45
		c-8.53-6.33-16.96-14.48-18.24-25.03C80.49,95.1,91.66,91.14,102.35,93.99z"/>
	<path class="st2" d="M89.91,103.29c22.5,16.22,47.7,28.7,74.24,36.76"/>
</g>
<g id="Layer_1">
	<path class="st2" d="M80.86,5.17C72.8,51.9,41.6,94.06-0.73,115.43C-1,115.57-1.81,82.88-0.44,77.86
		c2.86-10.48,10.46-20.47,17.14-28.8C33.14,28.55,55.68,12.87,80.86,5.17z"/>
	<path class="st3" d="M58.05,173.21c20.18,14.69,43.64,24.83,67.95,31.56c-20.72,1.84-41.59,3.68-62.27,1.78s-41.4-7.79-57.81-20.01
		c-1.99-1.48-3.96-3.11-5.14-5.25c-1.01-1.83-0.12-48.26-0.12-48.26C17.5,140.95,43.24,162.42,58.05,173.21z"/>
	<path class="st4" d="M37.89,81.09c14.57-4.95,30.05-6.44,45.36-7.91c32.06-3.06,64.11-6.12,96.17-9.18
		c-14.89,33.19-41.33,61.07-73.68,77.71S35.33,163.63-0.34,156.43c0.17-14.18-0.88-44.65-0.88-44.65
		C5.35,99.31,25.22,85.39,37.89,81.09z"/>
	<path class="st5" d="M23.97,30.47c18.41,9.61,38.69,15.6,59.36,17.55C58.23,62.78,27.88,71.26,0.29,61.98L-0.03,21.7
		C7.99,20.54,16.93,26.8,23.97,30.47z"/>
	<path class="st6" d="M-0.61,134.88C46.7,129.15,92.68,112.65,132.84,87"/>
</g>
<g id="Layer_3">
	<g>
		<g>
			<path class="st7" d="M197.08,15.96"/>
		</g>
	</g>
</g>
</svg>
